<svg xmlns="http://www.w3.org/2000/svg" viewBox="0 0 100 100" preserveAspectRatio="xMidYMid" width="192" height="192" style="shape-rendering: auto; display: block; background: transparent;" xmlns:xlink="http://www.w3.org/1999/xlink"><g><g transform="rotate(0 50 50)">
  <rect fill="#38b6d4" height="14" width="10" ry="7" rx="5" y="23" x="45">
    <animate repeatCount="indefinite" begin="-1.4322916666666667s" dur="1.5625s" keyTimes="0;1" values="1;0" attributeName="opacity"></animate>
  </rect>
</g><g transform="rotate(30 50 50)">
  <rect fill="#38b6d4" height="14" width="10" ry="7" rx="5" y="23" x="45">
    <animate repeatCount="indefinite" begin="-1.3020833333333335s" dur="1.5625s" keyTimes="0;1" values="1;0" attributeName="opacity"></animate>
  </rect>
</g><g transform="rotate(60 50 50)">
  <rect fill="#38b6d4" height="14" width="10" ry="7" rx="5" y="23" x="45">
    <animate repeatCount="indefinite" begin="-1.171875s" dur="1.5625s" keyTimes="0;1" values="1;0" attributeName="opacity"></animate>
  </rect>
</g><g transform="rotate(90 50 50)">
  <rect fill="#38b6d4" height="14" width="10" ry="7" rx="5" y="23" x="45">
    <animate repeatCount="indefinite" begin="-1.0416666666666667s" dur="1.5625s" keyTimes="0;1" values="1;0" attributeName="opacity"></animate>
  </rect>
</g><g transform="rotate(120 50 50)">
  <rect fill="#38b6d4" height="14" width="10" ry="7" rx="5" y="23" x="45">
    <animate repeatCount="indefinite" begin="-0.9114583333333334s" dur="1.5625s" keyTimes="0;1" values="1;0" attributeName="opacity"></animate>
  </rect>
</g><g transform="rotate(150 50 50)">
  <rect fill="#38b6d4" height="14" width="10" ry="7" rx="5" y="23" x="45">
    <animate repeatCount="indefinite" begin="-0.78125s" dur="1.5625s" keyTimes="0;1" values="1;0" attributeName="opacity"></animate>
  </rect>
</g><g transform="rotate(180 50 50)">
  <rect fill="#38b6d4" height="14" width="10" ry="7" rx="5" y="23" x="45">
    <animate repeatCount="indefinite" begin="-0.6510416666666667s" dur="1.5625s" keyTimes="0;1" values="1;0" attributeName="opacity"></animate>
  </rect>
</g><g transform="rotate(210 50 50)">
  <rect fill="#38b6d4" height="14" width="10" ry="7" rx="5" y="23" x="45">
    <animate repeatCount="indefinite" begin="-0.5208333333333334s" dur="1.5625s" keyTimes="0;1" values="1;0" attributeName="opacity"></animate>
  </rect>
</g><g transform="rotate(240 50 50)">
  <rect fill="#38b6d4" height="14" width="10" ry="7" rx="5" y="23" x="45">
    <animate repeatCount="indefinite" begin="-0.390625s" dur="1.5625s" keyTimes="0;1" values="1;0" attributeName="opacity"></animate>
  </rect>
</g><g transform="rotate(270 50 50)">
  <rect fill="#38b6d4" height="14" width="10" ry="7" rx="5" y="23" x="45">
    <animate repeatCount="indefinite" begin="-0.2604166666666667s" dur="1.5625s" keyTimes="0;1" values="1;0" attributeName="opacity"></animate>
  </rect>
</g><g transform="rotate(300 50 50)">
  <rect fill="#38b6d4" height="14" width="10" ry="7" rx="5" y="23" x="45">
    <animate repeatCount="indefinite" begin="-0.13020833333333334s" dur="1.5625s" keyTimes="0;1" values="1;0" attributeName="opacity"></animate>
  </rect>
</g><g transform="rotate(330 50 50)">
  <rect fill="#38b6d4" height="14" width="10" ry="7" rx="5" y="23" x="45">
    <animate repeatCount="indefinite" begin="0s" dur="1.5625s" keyTimes="0;1" values="1;0" attributeName="opacity"></animate>
  </rect>
</g><g></g></g><!-- [ldio] generated by https://loading.io --></svg>